<svg width="26" height="26" fill="none" xmlns="http://www.w3.org/2000/svg"><path fill-rule="evenodd" clip-rule="evenodd" d="M23.833 13c0 5.983-4.85 10.833-10.833 10.833-5.983 0-10.833-4.85-10.833-10.833C2.167 7.017 7.017 2.166 13 2.166c5.983 0 10.833 4.85 10.833 10.834ZM9.718 9.717a.813.813 0 0 1 1.148 0L13 11.851l2.134-2.134a.812.812 0 0 1 1.148 1.149L14.148 13l2.134 2.134a.813.813 0 0 1-1.148 1.148L13 14.148l-2.134 2.134a.813.813 0 0 1-1.148-1.148L11.852 13l-2.134-2.134a.813.813 0 0 1 0-1.149Z" fill="#fff"/></svg>