<svg width="28" height="28" fill="none" xmlns="http://www.w3.org/2000/svg"><rect x="28" y="28" width="28" height="28" rx="14" transform="rotate(-180 28 28)" fill="#083D77"/><path d="M12.104 18.632c.265.252.608.378 1.017.367a1.5 1.5 0 0 0 1.016-.399c.266-.252.41-.588.41-.976s-.133-.724-.41-.976l-1.326-1.26h4.752c.42 0 .763-.137 1.028-.4.265-.272.409-.598.409-.996 0-.4-.144-.725-.42-.998-.287-.273-.63-.399-1.05-.399h-4.719l1.36-1.291c.265-.252.397-.578.386-.966a1.358 1.358 0 0 0-.42-.966 1.457 1.457 0 0 0-1.027-.388c-.41 0-.763.126-1.028.388l-3.835 3.643c-.298.284-.442.61-.442.976 0 .368.144.704.442.977l3.868 3.674-.011-.01Z" fill="#fff"/></svg>