<svg width="24" height="24" fill="none" xmlns="http://www.w3.org/2000/svg"><path d="M23.386 23.494H18.51a.623.623 0 0 1-.623-.623v-7.852c0-2.693-1.39-2.693-1.848-2.693-1.233 0-1.757.973-1.927 1.394-.08.189-.118.51-.118.959v8.197a.623.623 0 0 1-.624.623H8.49a.63.63 0 0 1-.444-.184.606.606 0 0 1-.18-.444c0-.132.066-13.3 0-14.646a.625.625 0 0 1 .624-.652h4.88c.345 0 .624.279.624.624v.368c.822-.732 2.008-1.337 3.774-1.337 3.908 0 6.241 2.703 6.241 7.229v8.414a.623.623 0 0 1-.623.623Zm-4.252-1.247h3.633v-7.79c0-3.804-1.819-5.982-4.994-5.982-2.121 0-3.15 1.059-3.798 2.027a.627.627 0 0 1-.6.444h-.033a.618.618 0 0 1-.543-.32.62.62 0 0 1-.048-.502V8.816H9.128c.033 2.603 0 11.027-.01 13.426h3.628v-7.568c0-.628.067-1.082.208-1.427.548-1.356 1.701-2.173 3.08-2.173 1.966 0 3.095 1.436 3.095 3.94v7.233h.005ZM5.792 23.494H.912a.623.623 0 0 1-.624-.623V8.197c0-.345.279-.624.624-.624h4.88c.345 0 .624.279.624.624V22.87a.623.623 0 0 1-.624.623Zm-4.257-1.247H5.17V8.82H1.536v13.427Zm1.82-15.43H3.32C1.398 6.817 0 5.485 0 3.652 0 1.824 1.422.492 3.387.492c1.933 0 3.312 1.294 3.35 3.146 0 1.847-1.422 3.18-3.383 3.18Zm.032-5.074c-1.28 0-2.14.77-2.14 1.914 0 1.124.85 1.913 2.074 1.913h.033c1.276 0 2.136-.77 2.136-1.913-.024-1.158-.85-1.914-2.103-1.914Z" fill="#0F2F52"/></svg>