<svg width="56" height="28" fill="none" xmlns="http://www.w3.org/2000/svg"><rect x=".5" y=".5" width="55" height="27" rx="13.5" stroke="#E8F1FF"/><path d="M40.599 9.5a.78.78 0 0 1 .542.169l.056.053V9.72l3.664 3.665.007.007a.82.82 0 0 1 .267.616c0 .226-.078.426-.274.622l-3.642 3.643-.007.007c-.144.15-.342.236-.616.236a.848.848 0 0 1-.615-.236.877.877 0 0 1-.254-.537l-.006-.096a.779.779 0 0 1 .169-.54l.051-.058 2.145-2.145h-5.69c-.275 0-.468-.08-.64-.25a.878.878 0 0 1-.256-.646.91.91 0 0 1 .196-.59l.06-.068c.15-.154.341-.239.61-.239h5.72L39.973 11l-.007-.008-.053-.056c-.117-.137-.181-.319-.182-.559a.85.85 0 0 1 .237-.62.88.88 0 0 1 .535-.25l.096-.006Z" fill="#E8F1FF" stroke="#E8F1FF"/></svg>