<svg width="28" height="28" fill="none" xmlns="http://www.w3.org/2000/svg"><rect width="28" height="28" rx="14" fill="#083D77"/><path d="M14.896 9.368c-.265-.252-.608-.378-1.017-.367a1.5 1.5 0 0 0-1.016.399 1.311 1.311 0 0 0-.41.976c0 .388.133.724.41.976l1.326 1.26H9.437c-.42 0-.763.137-1.028.4a1.376 1.376 0 0 0-.409.996c0 .4.144.725.42.998.287.273.63.399 1.05.399h4.719l-1.36 1.291a1.232 1.232 0 0 0-.386.966c.01.389.154.703.42.966.265.252.618.388 1.027.388.41 0 .763-.126 1.028-.388l3.835-3.643c.298-.284.442-.61.442-.976a1.29 1.29 0 0 0-.442-.977l-3.868-3.674.011.01Z" fill="#fff"/></svg>