<svg width="24" height="24" fill="none" xmlns="http://www.w3.org/2000/svg"><path d="M21.84 12.062c0 .049 0 .104-.002.169l-.011.596a33.292 33.292 0 0 1-.098 1.815c-.067.8-.165 1.467-.298 1.968a3.088 3.088 0 0 1-2.186 2.182c-.629.169-1.86.273-3.595.337-.824.031-1.707.051-2.59.062-.309.005-.595.007-.853.01h-.654c-.258-.003-.545-.005-.854-.01-.882-.01-1.765-.03-2.59-.062-1.734-.066-2.968-.17-3.595-.337A3.1 3.1 0 0 1 2.33 16.61c-.136-.501-.231-1.168-.298-1.968a33.367 33.367 0 0 1-.108-2.411c0-.065-.003-.12-.003-.169v-.124c0-.049 0-.104.002-.168.002-.18.007-.381.011-.596.018-.619.05-1.235.098-1.815.067-.8.165-1.467.298-1.968a3.093 3.093 0 0 1 2.185-2.183c.627-.168 1.861-.273 3.595-.337.825-.03 1.708-.05 2.59-.062l.854-.009h.654c.258.002.544.005.853.01.883.01 1.766.03 2.59.061 1.735.067 2.969.17 3.595.337a3.09 3.09 0 0 1 2.186 2.183c.136.5.231 1.168.298 1.968.049.58.08 1.196.098 1.815.006.215.008.416.01.596 0 .064.003.12.003.168v.124Zm-1.6-.115c0-.046 0-.097-.003-.157-.002-.173-.007-.364-.011-.57a29.892 29.892 0 0 0-.093-1.726c-.06-.714-.145-1.299-.25-1.691A1.493 1.493 0 0 0 18.83 6.75c-.467-.124-1.643-.223-3.242-.283a101.336 101.336 0 0 0-3.39-.069h-.636l-.84.007c-.87.01-1.739.03-2.55.062-1.599.062-2.777.16-3.242.283a1.5 1.5 0 0 0-1.054 1.053c-.104.392-.189.977-.249 1.69a31.99 31.99 0 0 0-.093 1.727c-.007.206-.009.399-.011.57l-.002.157v.106c0 .047 0 .098.002.158.002.173.007.363.011.57.016.589.047 1.178.093 1.726.06.713.145 1.298.25 1.69.137.512.542.918 1.053 1.053.467.124 1.643.224 3.242.284a101.532 101.532 0 0 0 3.39.068h.636l.84-.006c.87-.011 1.739-.031 2.55-.062 1.599-.062 2.777-.16 3.242-.284.511-.137.916-.54 1.054-1.053.104-.392.189-.977.248-1.69.047-.548.076-1.137.094-1.727.007-.206.009-.399.011-.57l.002-.157v-.106ZM9.9 9.031l5.158 2.991L9.9 14.97V9.03Z" fill="#0F2F52"/></svg>