<svg width="26" height="26" viewBox="0 0 26 26" fill="none" xmlns="http://www.w3.org/2000/svg">
<path fill-rule="evenodd" clip-rule="evenodd" d="M23.8334 12.9998C23.8334 18.9831 18.9833 23.8332 13 23.8332C7.01677 23.8332 2.16669 18.9831 2.16669 12.9998C2.16669 7.01659 7.01677 2.1665 13 2.1665C18.9833 2.1665 23.8334 7.01659 23.8334 12.9998ZM9.71752 9.71734C9.86986 9.56518 10.0764 9.47972 10.2917 9.47972C10.507 9.47972 10.7135 9.56518 10.8659 9.71734L13 11.8515L15.1342 9.71734C15.2882 9.57382 15.4919 9.49568 15.7024 9.4994C15.9129 9.50311 16.1137 9.58838 16.2626 9.73725C16.4115 9.88611 16.4967 10.0869 16.5005 10.2974C16.5042 10.5079 16.426 10.7116 16.2825 10.8657L14.1484 12.9998L16.2825 15.134C16.426 15.288 16.5042 15.4917 16.5005 15.7022C16.4967 15.9127 16.4115 16.1136 16.2626 16.2624C16.1137 16.4113 15.9129 16.4966 15.7024 16.5003C15.4919 16.504 15.2882 16.4259 15.1342 16.2823L13 14.1482L10.8659 16.2823C10.7118 16.4259 10.5081 16.504 10.2976 16.5003C10.0871 16.4966 9.88629 16.4113 9.73743 16.2624C9.58857 16.1136 9.50329 15.9127 9.49958 15.7022C9.49587 15.4917 9.574 15.288 9.71752 15.134L11.8517 12.9998L9.71752 10.8657C9.56537 10.7133 9.4799 10.5068 9.4799 10.2915C9.4799 10.0762 9.56537 9.86968 9.71752 9.71734Z" fill="white"/>
</svg>
