<svg width="28" height="28" viewBox="0 0 28 28" fill="none" xmlns="http://www.w3.org/2000/svg">
<rect x="28" y="28" width="28" height="28" rx="14" transform="rotate(-180 28 28)" fill="#083D77"/>
<path d="M12.104 18.6319C12.3693 18.8839 12.7118 19.0099 13.1207 18.9994C13.5296 18.9889 13.8612 18.8524 14.1374 18.6004C14.4027 18.3485 14.5463 18.0125 14.5463 17.6241C14.5463 17.2356 14.4137 16.8997 14.1374 16.6477L12.8113 15.3878L17.5633 15.3878C17.9833 15.3878 18.3259 15.2514 18.5911 14.9889C18.8563 14.7159 19 14.3905 19 13.9915C19 13.5926 18.8563 13.2671 18.5801 12.9941C18.2927 12.7212 17.9501 12.5952 17.5302 12.5952L12.8113 12.5952L14.1706 11.3039C14.4358 11.0519 14.5684 10.7264 14.5574 10.338C14.5463 9.94953 14.4027 9.63456 14.1375 9.3721C13.8722 9.12013 13.5186 8.98364 13.1097 8.98364C12.7008 8.98364 12.3471 9.10963 12.0819 9.3721L8.24714 13.0151C7.94875 13.2986 7.80508 13.6241 7.80508 13.9915C7.80508 14.359 7.94875 14.6949 8.24714 14.9679L12.1151 18.6424L12.104 18.6319Z" fill="white"/>
</svg>
