<svg width="56" height="28" viewBox="0 0 56 28" fill="none" xmlns="http://www.w3.org/2000/svg">
<rect x="0.5" y="0.5" width="55" height="27" rx="13.5" stroke="#E8F1FF"/>
<path d="M40.5986 9.5C40.8276 9.49381 41.0018 9.55466 41.1406 9.66895L41.1973 9.72168V9.7207L44.8613 13.3857L44.8682 13.3926C45.0532 13.5707 45.1348 13.7764 45.1348 14.0088C45.1347 14.2355 45.0567 14.4355 44.8613 14.6309L41.2188 18.2744L41.2119 18.2812C41.0684 18.4307 40.87 18.5166 40.5957 18.5166C40.3352 18.5166 40.1318 18.429 39.9805 18.2812C39.8353 18.1301 39.7502 17.9612 39.7266 17.7441L39.7207 17.6484C39.7145 17.4195 39.7754 17.2462 39.8896 17.1074L39.9414 17.0498L42.0859 14.9053H36.3965C36.1211 14.9053 35.9277 14.8245 35.7568 14.6553C35.5853 14.4755 35.5001 14.2755 35.5 14.0088C35.5 13.7728 35.5663 13.5857 35.6963 13.4199L35.7559 13.3506C35.9062 13.1972 36.0971 13.1123 36.3652 13.1123H42.0859L39.9727 10.999L39.9658 10.9912L39.9131 10.9355C39.7964 10.7978 39.7315 10.6162 39.7314 10.376C39.7314 10.1138 39.8184 9.90846 39.9678 9.75684C40.1182 9.61339 40.2874 9.53036 40.5029 9.50684L40.5986 9.5Z" fill="#E8F1FF" stroke="#E8F1FF"/>
</svg>
