<svg width="28" height="28" viewBox="0 0 28 28" fill="none" xmlns="http://www.w3.org/2000/svg">
<rect width="28" height="28" rx="14" fill="#083D77"/>
<path d="M14.896 9.36806C14.6308 9.11609 14.2882 8.99011 13.8793 9.00061C13.4704 9.0111 13.1388 9.14759 12.8626 9.39956C12.5973 9.65153 12.4537 9.98748 12.4537 10.3759C12.4537 10.7644 12.5863 11.1003 12.8626 11.3523L14.1887 12.6122H9.43666C9.01672 12.6122 8.67413 12.7486 8.4089 13.0111C8.14367 13.2841 8 13.6095 8 14.0085C8 14.4074 8.14367 14.7329 8.41995 15.0059C8.70728 15.2788 9.04987 15.4048 9.46982 15.4048H14.1887L12.8294 16.6961C12.5642 16.9481 12.4316 17.2736 12.4426 17.662C12.4537 18.0505 12.5973 18.3654 12.8626 18.6279C13.1278 18.8799 13.4814 19.0164 13.8903 19.0164C14.2992 19.0164 14.6529 18.8904 14.9181 18.6279L18.7529 14.9849C19.0513 14.7014 19.1949 14.3759 19.1949 14.0085C19.1949 13.641 19.0513 13.3051 18.7529 13.0321L14.8849 9.35756L14.896 9.36806Z" fill="white"/>
</svg>
