<svg width="24" height="24" viewBox="0 0 24 24" fill="none" xmlns="http://www.w3.org/2000/svg">
<path d="M21.5996 4.00914C21.5996 4.00914 19.7651 5.09278 18.7451 5.40005C18.1976 4.77051 17.4699 4.32432 16.6605 4.1218C15.8512 3.91929 14.9991 3.97023 14.2197 4.26774C13.4402 4.56524 12.7709 5.09496 12.3023 5.78525C11.8337 6.47553 11.5884 7.29308 11.5996 8.12732V9.03641C10.002 9.07784 8.41895 8.72352 6.99143 8.005C5.56392 7.28649 4.33626 6.22608 3.41779 4.91823C3.41779 4.91823 -0.218572 13.1 7.96324 16.7364C6.091 18.0073 3.86066 18.6445 1.59961 18.5546C9.78143 23.1 19.7814 18.5546 19.7814 8.10005C19.7814 7.84732 19.756 7.59459 19.7087 7.3455C20.636 6.43096 21.5996 4.00914 21.5996 4.00914Z" stroke="#0F2F52" stroke-width="1.5" stroke-linecap="round" stroke-linejoin="round"/>
</svg>
