<svg width="24" height="24" viewBox="0 0 24 24" fill="none" xmlns="http://www.w3.org/2000/svg">
<path d="M21.8399 12.0623C21.8399 12.111 21.8399 12.1664 21.8377 12.2307C21.8355 12.4102 21.831 12.6118 21.8266 12.8268C21.8088 13.4451 21.7777 14.0611 21.7288 14.6418C21.6621 15.4418 21.5642 16.1088 21.4308 16.6096C21.2901 17.1323 21.0142 17.609 20.6306 17.992C20.2471 18.3751 19.7695 18.6511 19.2454 18.7924C18.6163 18.9609 17.3846 19.065 15.6505 19.1293C14.8257 19.1603 13.9431 19.1803 13.0604 19.1913C12.7514 19.1958 12.4646 19.198 12.2067 19.2002L11.5531 19.2002C11.2952 19.198 11.0084 19.1958 10.6994 19.1913C9.81678 19.1803 8.93416 19.1603 8.10935 19.1293C6.37524 19.0628 5.14136 18.9586 4.51441 18.7924C3.99018 18.6514 3.51234 18.3755 3.12878 17.9924C2.74522 17.6093 2.46941 17.1324 2.32899 16.6096C2.19338 16.1088 2.09778 15.4417 2.03108 14.6417C1.98217 14.0611 1.95105 13.4451 1.93326 12.8268C1.92659 12.6118 1.92437 12.4102 1.92215 12.2307C1.92215 12.1664 1.91992 12.111 1.91992 12.0622L1.91992 11.9381C1.91992 11.8894 1.91992 11.834 1.92215 11.7697C1.92437 11.5902 1.92882 11.3886 1.93326 11.1736C1.95105 10.5553 1.98217 9.93926 2.03108 9.35865C2.09778 8.55865 2.1956 7.89161 2.329 7.39078C2.61357 6.32928 3.4495 5.49161 4.51442 5.20795C5.14136 5.03953 6.37525 4.93538 8.10935 4.87111C8.93417 4.84009 9.81678 4.82014 10.6994 4.80906C11.0084 4.80463 11.2952 4.80242 11.5531 4.8002L12.2067 4.8002C12.4646 4.80242 12.7514 4.80463 13.0605 4.80906C13.9431 4.82014 14.8257 4.84009 15.6505 4.87111C17.3846 4.9376 18.6185 5.04175 19.2454 5.20796C20.3104 5.49161 21.1463 6.32707 21.4309 7.39078C21.5665 7.89161 21.6621 8.55865 21.7288 9.35865C21.7777 9.93926 21.8088 10.5553 21.8266 11.1736C21.8333 11.3886 21.8355 11.5902 21.8377 11.7697C21.8377 11.834 21.8399 11.8894 21.8399 11.9382L21.8399 12.0623ZM20.2392 11.947C20.2392 11.9005 20.2392 11.8495 20.237 11.7897C20.2348 11.6168 20.2303 11.4262 20.2259 11.2201C20.2103 10.6307 20.1792 10.0412 20.1325 9.49383C20.0725 8.78026 19.988 8.19521 19.8835 7.80297C19.7457 7.29106 19.341 6.88552 18.8297 6.75034C18.3628 6.62624 17.1867 6.52652 15.5882 6.46668C14.779 6.43566 13.9075 6.41571 13.0382 6.40463C12.7336 6.4002 12.4513 6.39799 12.1978 6.39799L11.562 6.39799L10.7216 6.40463C9.85235 6.41571 8.98308 6.43566 8.1716 6.46668C6.57311 6.52873 5.39481 6.62624 4.93016 6.75034C4.41882 6.88773 4.01419 7.29106 3.87635 7.80297C3.77186 8.19521 3.68738 8.78025 3.62735 9.49383C3.58066 10.0412 3.55176 10.6307 3.53398 11.2201C3.52731 11.4262 3.52508 11.619 3.52286 11.7897C3.52286 11.8495 3.52064 11.9027 3.52064 11.947L3.52064 12.0534C3.52064 12.0999 3.52064 12.1509 3.52286 12.2107C3.52508 12.3836 3.52953 12.5742 3.53398 12.7803C3.54954 13.3697 3.58066 13.9592 3.62735 14.5066C3.68738 15.2201 3.77186 15.8052 3.87635 16.1974C4.01419 16.7093 4.41882 17.1149 4.93015 17.2501C5.39703 17.3742 6.57311 17.4739 8.1716 17.5337C8.98085 17.5647 9.85235 17.5847 10.7216 17.5958C11.0262 17.6002 11.3086 17.6024 11.562 17.6024L12.1978 17.6024L13.0382 17.5958C13.9075 17.5847 14.7768 17.5647 15.5882 17.5337C17.1867 17.4717 18.365 17.3742 18.8297 17.2501C19.341 17.1127 19.7457 16.7093 19.8835 16.1974C19.988 15.8052 20.0725 15.2201 20.1325 14.5066C20.1792 13.9592 20.2081 13.3697 20.2259 12.7803C20.2325 12.5742 20.2348 12.3814 20.237 12.2107C20.237 12.1509 20.2392 12.0977 20.2392 12.0534L20.2392 11.947ZM9.90126 9.03067L15.0591 12.0224L9.90126 14.9697L9.90126 9.03067Z" fill="#0F2F52"/>
</svg>
